<svg width="48" height="48" viewBox="0 0 48 48" fill="none" xmlns="http://www.w3.org/2000/svg">
<g clip-path="url(#clip0_25_36)">
<path d="M12.2154 18.6206L10.8253 16.2129C10.5612 15.7557 9.97655 15.5989 9.51915 15.8629C9.06184 16.1269 8.90509 16.7118 9.16918 17.1691L10.5593 19.5768C10.7365 19.8835 11.0578 20.055 11.3883 20.055C11.5505 20.055 11.715 20.0136 11.8654 19.9267C12.3227 19.6627 12.4795 19.078 12.2154 18.6206Z" fill="black"/>
<path d="M11.8383 3.33082C11.3808 3.06682 10.796 3.22348 10.5321 3.68079L6.23285 11.1273C6.06203 11.4231 6.06203 11.7876 6.23285 12.0834L7.48131 14.2458C7.6585 14.5525 7.97978 14.724 8.31035 14.724C8.47253 14.724 8.63697 14.6826 8.78744 14.5957C9.24485 14.3317 9.4015 13.7469 9.13741 13.2896L8.16494 11.6054L12.1881 4.63695C12.4523 4.17963 12.2957 3.59482 11.8383 3.33082Z" fill="black"/>
<path d="M47.6139 21.8753L41.4656 11.2262C41.2948 10.9303 40.9791 10.7481 40.6375 10.7481H28.9101L22.9808 0.478125C22.81 0.18225 22.4943 0 22.1527 0H9.85589C9.51436 0 9.19861 0.18225 9.02789 0.478125L2.87957 11.1273C2.70876 11.4232 2.70876 11.7877 2.87957 12.0834L9.02789 22.7328C9.1987 23.0287 9.51436 23.2109 9.85598 23.2109H21.5835L27.5128 33.4809C27.6836 33.7768 27.9992 33.9591 28.3409 33.9591H40.6376C40.9791 33.9591 41.2949 33.7768 41.4657 33.4809L47.614 22.8316C47.7846 22.5357 47.7846 22.1712 47.6139 21.8753ZM10.408 21.2985L4.81167 11.6054L10.408 1.91241H21.6007L27.1969 11.6054L21.6007 21.2985H10.408ZM40.0855 32.0465H28.8929L23.2965 22.3535L28.8929 12.6605H40.0855L45.6817 22.3535L40.0855 32.0465Z" fill="black"/>
<path d="M26.6356 35.9165L20.4872 25.2672C20.3164 24.9713 20.0007 24.7891 19.6591 24.7891H7.36245C7.02092 24.7891 6.70517 24.9713 6.53436 25.2672L0.386044 35.9165C0.215231 36.2124 0.215231 36.5769 0.386044 36.8727L6.53436 47.5218C6.70517 47.8177 7.02082 48 7.36245 48H19.6592C20.0007 48 20.3164 47.8177 20.4873 47.5218L26.6357 36.8726C26.8064 36.5768 26.8064 36.2123 26.6356 35.9165ZM19.1071 46.0877H7.91445L2.31823 36.3946L7.91445 26.7015H19.1071L24.7034 36.3946L19.1071 46.0877Z" fill="black"/>
</g>
<defs>
<clipPath id="clip0_25_36">
<rect width="48" height="48" fill="white"/>
</clipPath>
</defs>
</svg>
