<svg width="20" height="22" viewBox="0 0 20 22" fill="none" xmlns="http://www.w3.org/2000/svg">
<path d="M19.3085 11.872C19.6717 11.257 19.8771 10.6011 19.8771 9.80809C19.8771 7.9854 18.3358 6.26417 16.3232 6.26417H14.8125C15.0163 5.7337 15.179 5.09929 15.179 4.33693C15.179 1.32249 13.6183 0 11.2338 0C8.68267 0 8.82819 3.93123 8.26223 4.49718C7.32026 5.43915 6.20765 7.24879 5.41484 7.95082H1.32514C0.593289 7.95082 0 8.54411 0 9.27596V19.2145C0 19.9463 0.593289 20.5396 1.32514 20.5396H3.97541C4.59214 20.5396 5.11039 20.1183 5.25823 19.5478C7.10137 19.5893 8.3665 21.2018 12.6211 21.2018C12.9201 21.2018 13.2514 21.2022 13.5412 21.2022C16.7347 21.2022 18.1786 19.5697 18.2181 17.2545C18.7697 16.4915 19.0587 15.4688 18.9362 14.4804C19.3443 13.7163 19.502 12.8098 19.3085 11.872ZM16.7514 14.1011C17.2715 14.9761 16.8036 16.1472 16.1741 16.4851C16.493 18.5051 15.445 19.2141 13.9744 19.2141H12.4083C9.44164 19.2141 7.52061 17.6479 5.30055 17.6479V9.93853H5.75275C6.92715 9.93853 8.56784 7.00294 9.6677 5.90266C10.8421 4.72826 10.4508 2.77078 11.2338 1.98771C13.1913 1.98771 13.1913 3.35343 13.1913 4.33693C13.1913 5.95898 12.0169 6.68573 12.0169 8.25188H16.3232C17.1974 8.25188 17.8856 9.03495 17.8893 9.81802C17.8931 10.6007 17.3585 11.3838 16.9671 11.3838C17.5257 11.9865 17.6451 13.257 16.7514 14.1011ZM3.64413 17.8894C3.64413 18.4382 3.19917 18.8832 2.65027 18.8832C2.10138 18.8832 1.65642 18.4382 1.65642 17.8894C1.65642 17.3405 2.10138 16.8955 2.65027 16.8955C3.19917 16.8955 3.64413 17.3405 3.64413 17.8894Z" fill="black"/>
</svg>
