<svg width="230" height="60" viewBox="0 0 230 60" fill="none" xmlns="http://www.w3.org/2000/svg">
<path d="M6.72 19.08V28.4H16.88V31.4H6.72V41H18.08V44H3.08V16.08H18.08V19.08H6.72ZM133.053 16.12V19.08H125.453V44H121.813V19.08H114.173V16.12H133.053Z" fill="#490000"/>
<path d="M35.2678 44L29.1478 34.44L23.1478 44H21.2278L28.2278 33.04L21.3078 22.28H23.3478L29.3878 31.64L35.3078 22.28H37.1878L30.2678 33.08L37.3078 44H35.2678ZM60.8869 31.68C60.8869 32.64 60.8602 33.36 60.8069 33.84H42.0469C42.1002 35.7867 42.5269 37.4267 43.3269 38.76C44.1269 40.0933 45.1802 41.0933 46.4869 41.76C47.7935 42.4267 49.2202 42.76 50.7669 42.76C52.9002 42.76 54.6869 42.24 56.1269 41.2C57.5669 40.1333 58.4735 38.6933 58.8469 36.88H60.7269C60.3002 39.0933 59.2069 40.8933 57.4469 42.28C55.6869 43.64 53.4602 44.32 50.7669 44.32C48.7402 44.32 46.9269 43.8667 45.3269 42.96C43.7269 42.0533 42.4735 40.76 41.5669 39.08C40.6602 37.3733 40.2069 35.3867 40.2069 33.12C40.2069 30.8533 40.6469 28.88 41.5269 27.2C42.4335 25.52 43.6869 24.24 45.2869 23.36C46.8869 22.4533 48.7135 22 50.7669 22C52.8469 22 54.6469 22.4533 56.1669 23.36C57.7135 24.24 58.8869 25.4267 59.6869 26.92C60.4869 28.3867 60.8869 29.9733 60.8869 31.68ZM59.0869 32.36C59.1669 30.44 58.8202 28.8133 58.0469 27.48C57.3002 26.1467 56.2735 25.16 54.9669 24.52C53.6602 23.8533 52.2469 23.52 50.7269 23.52C49.2069 23.52 47.7935 23.8533 46.4869 24.52C45.2069 25.16 44.1535 26.1467 43.3269 27.48C42.5269 28.8133 42.1002 30.44 42.0469 32.36H59.0869ZM65.2069 33.12C65.2069 30.8533 65.6469 28.88 66.5269 27.2C67.4335 25.52 68.6735 24.24 70.2469 23.36C71.8469 22.4533 73.6735 22 75.7269 22C78.4469 22 80.6735 22.68 82.4069 24.04C84.1669 25.4 85.2602 27.2267 85.6869 29.52H83.8069C83.4602 27.6533 82.5535 26.1867 81.0869 25.12C79.6469 24.0533 77.8602 23.52 75.7269 23.52C74.1269 23.52 72.6735 23.88 71.3669 24.6C70.0602 25.2933 69.0069 26.3733 68.2069 27.84C67.4335 29.28 67.0469 31.04 67.0469 33.12C67.0469 35.2267 67.4335 37 68.2069 38.44C69.0069 39.88 70.0602 40.96 71.3669 41.68C72.6735 42.4 74.1269 42.76 75.7269 42.76C77.8602 42.76 79.6469 42.2267 81.0869 41.16C82.5535 40.0933 83.4602 38.6267 83.8069 36.76H85.6869C85.2602 39.0267 84.1669 40.8533 82.4069 42.24C80.6469 43.6267 78.4202 44.32 75.7269 44.32C73.6735 44.32 71.8469 43.8667 70.2469 42.96C68.6735 42.0533 67.4335 40.76 66.5269 39.08C65.6469 37.3733 65.2069 35.3867 65.2069 33.12ZM109.531 22.28V44H107.731V39.28C107.117 40.9333 106.091 42.2 104.651 43.08C103.237 43.9333 101.611 44.36 99.7706 44.36C97.184 44.36 95.064 43.5733 93.4106 42C91.784 40.4 90.9706 38.04 90.9706 34.92V22.28H92.7306V34.8C92.7306 37.3867 93.384 39.3733 94.6906 40.76C95.9973 42.12 97.7706 42.8 100.011 42.8C102.357 42.8 104.224 42.0533 105.611 40.56C107.024 39.0667 107.731 36.8533 107.731 33.92V22.28H109.531ZM147.293 44.32C145.266 44.32 143.44 43.8667 141.813 42.96C140.186 42.0533 138.906 40.76 137.973 39.08C137.066 37.3733 136.613 35.3867 136.613 33.12C136.613 30.88 137.08 28.92 138.013 27.24C138.946 25.5333 140.226 24.24 141.853 23.36C143.506 22.4533 145.346 22 147.373 22C149.4 22 151.226 22.4533 152.853 23.36C154.48 24.24 155.746 25.52 156.653 27.2C157.586 28.88 158.053 30.8533 158.053 33.12C158.053 35.3867 157.586 37.3733 156.653 39.08C155.72 40.76 154.426 42.0533 152.773 42.96C151.146 43.8667 149.32 44.32 147.293 44.32ZM147.293 42.72C148.866 42.72 150.333 42.3733 151.693 41.68C153.08 40.96 154.186 39.88 155.013 38.44C155.84 37 156.253 35.2267 156.253 33.12C156.253 31.04 155.84 29.28 155.013 27.84C154.186 26.4 153.093 25.3333 151.733 24.64C150.373 23.92 148.906 23.56 147.333 23.56C145.76 23.56 144.293 23.92 142.933 24.64C141.6 25.3333 140.52 26.4 139.693 27.84C138.866 29.28 138.453 31.04 138.453 33.12C138.453 35.2267 138.853 37 139.653 38.44C140.48 39.88 141.56 40.96 142.893 41.68C144.253 42.3733 145.72 42.72 147.293 42.72ZM173.074 44.32C171.048 44.32 169.221 43.8667 167.594 42.96C165.968 42.0533 164.688 40.76 163.754 39.08C162.848 37.3733 162.394 35.3867 162.394 33.12C162.394 30.88 162.861 28.92 163.794 27.24C164.728 25.5333 166.008 24.24 167.634 23.36C169.288 22.4533 171.128 22 173.154 22C175.181 22 177.008 22.4533 178.634 23.36C180.261 24.24 181.528 25.52 182.434 27.2C183.368 28.88 183.834 30.8533 183.834 33.12C183.834 35.3867 183.368 37.3733 182.434 39.08C181.501 40.76 180.208 42.0533 178.554 42.96C176.928 43.8667 175.101 44.32 173.074 44.32ZM173.074 42.72C174.648 42.72 176.114 42.3733 177.474 41.68C178.861 40.96 179.968 39.88 180.794 38.44C181.621 37 182.034 35.2267 182.034 33.12C182.034 31.04 181.621 29.28 180.794 27.84C179.968 26.4 178.874 25.3333 177.514 24.64C176.154 23.92 174.688 23.56 173.114 23.56C171.541 23.56 170.074 23.92 168.714 24.64C167.381 25.3333 166.301 26.4 165.474 27.84C164.648 29.28 164.234 31.04 164.234 33.12C164.234 35.2267 164.634 37 165.434 38.44C166.261 39.88 167.341 40.96 168.674 41.68C170.034 42.3733 171.501 42.72 173.074 42.72ZM191.096 14.4V44H189.296V14.4H191.096Z" fill="white"/>
<path d="M218.267 31.7006C217.594 31.0276 216.498 31.0276 215.825 31.7006L215.801 31.725L215.321 31.2453L220.069 26.4971C222.527 27.2521 225.155 26.6069 226.977 24.7842C228.58 23.1813 229.295 20.8934 228.888 18.6641C228.863 18.5289 228.766 18.4184 228.634 18.3777C228.504 18.3367 228.361 18.3722 228.263 18.4694L224.954 21.7781L220.875 21.1251L220.222 17.0458L223.53 13.7367C223.628 13.6395 223.663 13.4965 223.622 13.3653C223.581 13.2341 223.471 13.1365 223.336 13.1117C221.107 12.7059 218.818 13.4196 217.216 15.0224C215.393 16.8451 214.747 19.4727 215.503 21.9304L210.755 26.6793L200.847 16.7716C200.81 16.7342 200.764 16.7054 200.715 16.6869L198.233 15.7571C198.097 15.7065 197.944 15.7394 197.842 15.8417C197.74 15.9441 197.706 16.0971 197.757 16.2327L198.687 18.7151C198.706 18.7646 198.734 18.8094 198.772 18.8467L208.679 28.7544L203.931 33.5026C201.473 32.7472 198.845 33.3932 197.023 35.2156C195.42 36.8184 194.705 39.1064 195.112 41.3356C195.137 41.4709 195.234 41.5814 195.366 41.622C195.497 41.6634 195.64 41.628 195.737 41.5304L199.046 38.2217L203.125 38.8747L203.778 42.954L200.47 46.2631C200.372 46.3603 200.337 46.5033 200.378 46.6345C200.419 46.7657 200.529 46.8633 200.664 46.888C201.076 46.963 201.491 47 201.902 47C203.716 47 205.478 46.2838 206.784 44.977C208.607 43.1546 209.435 40.5163 208.679 38.0587L213.245 33.3204L213.725 33.8001L213.701 33.8245C213.027 34.4979 213.027 35.5933 213.701 36.2666L222.658 45.2242C222.993 45.5591 223.433 45.7261 223.873 45.7261C224.316 45.7261 224.759 45.5572 225.096 45.2198L227.221 43.0955C227.894 42.4222 227.896 41.3286 227.225 40.6578L218.267 31.7006ZM217.06 38.5816L217.778 37.8643L221.058 41.1449L220.341 41.8623L217.06 38.5816ZM220.059 34.5382L219.08 35.5164L217.516 37.0804L216.538 38.0587L215.497 37.0172L219.017 33.4967L220.059 34.5382ZM219.342 36.3003L222.622 39.5809L221.581 40.6224L218.3 37.3417L219.342 36.3003ZM220.864 42.3845L221.842 41.4062L223.406 39.8422L224.384 38.864L225.426 39.9054L221.905 43.4259L220.864 42.3845ZM223.145 39.0584L219.864 35.7777L220.582 35.0604L223.862 38.3414L223.145 39.0584ZM216.186 22.2933C216.285 22.1935 216.32 22.0457 216.274 21.9119C215.501 19.6608 216.062 17.2213 217.738 15.545C218.995 14.2888 220.722 13.6439 222.472 13.7503L219.566 16.6563C219.482 16.7401 219.443 16.8588 219.462 16.9759L220.187 21.5057C220.212 21.6632 220.336 21.787 220.494 21.8121L225.023 22.5372C225.14 22.556 225.259 22.5172 225.343 22.4337L228.249 19.5278C228.356 21.2773 227.711 23.0051 226.454 24.2612C224.778 25.9376 222.339 26.4986 220.088 25.7255C219.953 25.6789 219.806 25.7136 219.706 25.8138L214.798 30.7228L213.755 29.6798L217.542 25.8932C217.733 25.7018 217.839 25.4468 217.839 25.1755C217.839 24.9043 217.733 24.6493 217.542 24.4578C217.159 24.075 216.489 24.075 216.107 24.4578L212.32 28.2444L211.277 27.2015L216.186 22.2933ZM212.843 28.7674L216.63 24.9808C216.733 24.8769 216.916 24.8766 217.019 24.9808C217.072 25.0325 217.1 25.102 217.1 25.1755C217.1 25.2491 217.072 25.3186 217.019 25.3703L213.232 29.1573L212.843 28.7674ZM207.814 37.7065C207.715 37.8063 207.68 37.9541 207.726 38.0879C208.499 40.3389 207.938 42.7784 206.262 44.4544C205.006 45.7106 203.28 46.3562 201.528 46.2494L204.434 43.3435C204.518 43.2596 204.557 43.141 204.538 43.0238L203.813 38.494C203.788 38.3366 203.664 38.2128 203.506 38.1877L198.977 37.4622C198.859 37.4426 198.74 37.4818 198.657 37.5657L195.751 40.4716C195.644 38.722 196.289 36.9943 197.546 35.7382C199.222 34.0622 201.662 33.5015 203.912 34.2739C204.046 34.3194 204.194 34.2854 204.294 34.1856L209.202 29.277L210.245 30.3199L206.458 34.1061C206.267 34.2976 206.161 34.5526 206.161 34.8238C206.161 35.0951 206.267 35.3501 206.458 35.5415C206.649 35.733 206.904 35.8387 207.175 35.8387C207.447 35.8387 207.702 35.733 207.893 35.5415L211.68 31.7553L212.723 32.7982L207.814 37.7065ZM211.157 31.2324L207.371 35.0193C207.267 35.1232 207.085 35.1236 206.981 35.0193C206.929 34.9676 206.9 34.8981 206.9 34.8246C206.9 34.751 206.929 34.6816 206.981 34.6295L210.768 30.8425L211.157 31.2324ZM213.507 32.5366L211.941 30.9711L211.028 30.0583L209.463 28.4928L199.351 18.381L198.734 16.7342L200.381 17.351L210.493 27.4632C210.493 27.4632 210.493 27.4632 212.058 29.0287C213.624 30.5941 212.971 29.9415 212.971 29.9415L214.537 31.507L215.278 32.248L214.248 33.2779L213.507 32.5366ZM214.223 34.3475L214.509 34.0618L216.062 32.5092L216.347 32.2236C216.54 32.031 216.793 31.9349 217.046 31.9349C217.299 31.9349 217.552 32.031 217.744 32.2236L218.495 32.9742L214.974 36.4954L214.223 35.7448C213.838 35.3593 213.838 34.7326 214.223 34.3475ZM226.698 42.5733L224.573 44.6976C224.387 44.8842 224.139 44.9873 223.876 44.9881C223.614 44.9907 223.366 44.8872 223.181 44.7017L222.428 43.9488L225.949 40.428L226.702 41.1808C226.887 41.3663 226.989 41.6132 226.988 41.8759C226.987 42.1391 226.884 42.3867 226.698 42.5733Z" fill="#490000" stroke="black" stroke-width="0.5"/>
</svg>
